<?xml version="1.0" standalone="no"?>
<!DOCTYPE svg PUBLIC "-//W3C//DTD SVG 20010904//EN"
 "http://www.w3.org/TR/2001/REC-SVG-20010904/DTD/svg10.dtd">
<svg version="1.0" xmlns="http://www.w3.org/2000/svg"
 width="758.000000pt" height="269.000000pt" viewBox="0 0 758.000000 269.000000"
 preserveAspectRatio="xMidYMid meet">

<g transform="translate(0.000000,269.000000) scale(0.100000,-0.100000)"
fill="#000000" stroke="none">
<path d="M856 2218 c-3 -13 -7 -61 -10 -108 -6 -94 -18 -228 -42 -490 -20
-223 -32 -365 -30 -366 0 -1 72 1 159 4 l158 5 30 44 c93 135 313 184 484 108
69 -32 141 -131 160 -222 6 -30 5 -32 -27 -37 -18 -3 -184 -8 -368 -11 -392
-7 -406 -9 -485 -89 -79 -79 -101 -168 -69 -276 43 -145 173 -264 339 -311 67
-19 333 -19 395 0 82 25 160 60 218 100 106 72 209 200 258 321 l23 55 75 3
76 3 0 -30 c0 -42 47 -168 81 -217 68 -99 198 -189 333 -232 67 -21 325 -23
411 -3 79 19 169 59 242 109 94 63 94 57 -2 152 -78 77 -85 82 -100 66 -30
-29 -104 -77 -163 -103 -49 -23 -71 -26 -157 -26 -90 0 -107 3 -165 30 -99 45
-179 148 -180 229 l0 31 268 6 c147 4 360 10 474 14 l207 6 12 36 c7 20 13 81
13 136 2 300 -186 486 -515 511 -313 23 -577 -131 -712 -418 -15 -31 -27 -61
-27 -66 0 -18 -122 -30 -146 -14 -6 4 -15 29 -19 57 -23 155 -131 312 -261
378 -92 46 -160 60 -284 60 -97 0 -126 -4 -186 -25 -72 -25 -165 -81 -199
-118 -31 -34 -38 -24 -31 38 4 31 11 107 16 167 19 235 40 461 46 488 l6 27
-151 0 c-148 0 -151 0 -155 -22z m2157 -788 c69 -26 131 -87 157 -157 31 -84
32 -83 -62 -83 -46 0 -195 -5 -332 -10 -137 -6 -251 -8 -254 -5 -9 9 29 94 62
137 68 89 170 136 298 137 54 1 93 -5 131 -19z m-1270 -497 c10 -16 -50 -120
-93 -163 -157 -158 -456 -139 -535 32 -25 55 -20 98 13 115 9 4 127 10 262 13
135 3 268 7 297 8 28 1 54 -1 56 -5z"/>
<path d="M6313 2070 c-75 -45 -85 -149 -19 -202 32 -26 116 -24 151 4 48 37
67 110 44 161 -25 55 -116 74 -176 37z"/>
<path d="M5412 1656 c-75 -19 -172 -71 -234 -126 l-53 -47 6 76 c4 42 5 79 2
84 -8 13 -173 8 -178 -5 -2 -7 -8 -71 -14 -143 -21 -265 -81 -951 -86 -987
l-5 -38 93 0 93 0 28 338 c31 378 38 426 73 496 105 208 417 272 576 118 91
-88 102 -147 77 -419 -10 -114 -24 -269 -30 -343 -6 -74 -13 -147 -16 -163
l-6 -27 95 0 95 0 7 92 c4 51 18 212 31 358 29 319 30 370 5 449 -46 149 -148
248 -296 287 -62 17 -193 17 -263 0z"/>
<path d="M3707 1642 c-3 -4 -15 -117 -26 -252 -12 -135 -26 -289 -31 -343 -19
-189 -5 -290 54 -392 98 -166 311 -246 531 -200 225 47 396 231 429 460 5 30
66 713 66 731 0 2 -40 4 -90 4 l-89 0 -5 -32 c-3 -18 -12 -116 -21 -218 -33
-395 -37 -437 -47 -490 -23 -121 -97 -221 -198 -269 -73 -34 -186 -41 -261
-16 -60 20 -131 81 -159 135 -24 47 -43 153 -36 199 3 20 11 95 16 166 6 72
18 202 25 290 8 88 15 177 15 198 l0 37 -84 0 c-47 0 -87 -3 -89 -8z"/>
<path d="M6246 1598 c-6 -53 -38 -414 -57 -648 -5 -69 -16 -192 -24 -275 -8
-82 -15 -162 -15 -177 l0 -28 89 0 89 0 6 63 c4 34 13 139 21 232 16 189 26
296 55 622 11 122 20 231 20 242 0 20 -6 21 -89 21 l-89 0 -6 -52z"/>
<path d="M6683 821 c-113 -52 -140 -239 -46 -323 70 -63 194 -63 267 1 73 64
73 228 0 293 -55 49 -150 61 -221 29z m175 -38 c52 -39 67 -70 67 -138 0 -71
-17 -103 -75 -142 -87 -60 -219 1 -236 109 -13 79 24 154 91 184 40 19 120 12
153 -13z"/>
<path d="M6700 645 c0 -88 1 -95 20 -95 17 0 20 7 20 40 0 22 4 40 9 40 4 0
20 -18 35 -40 16 -25 34 -40 47 -40 21 0 20 4 -13 51 -15 23 -16 28 -3 33 8 3
20 17 27 30 9 20 8 30 -6 51 -15 22 -23 25 -76 25 l-60 0 0 -95z m99 56 c23
-15 5 -41 -29 -41 -25 0 -30 4 -30 25 0 19 5 25 23 25 12 0 28 -4 36 -9z"/>
</g>
</svg>
