<svg width="800" height="500" viewBox="0 0 800 500" fill="none" xmlns="http://www.w3.org/2000/svg">
  <!-- Background -->
  <rect width="800" height="500" rx="12" fill="#F8FAFC"/>
  
  <!-- Sidebar -->
  <rect width="200" height="500" fill="#1E293B"/>
  
  <!-- Logo area -->
  <rect x="30" y="30" width="140" height="40" rx="4" fill="#334155"/>
  <rect x="50" y="42" width="100" height="16" rx="2" fill="#94A3B8"/>
  
  <!-- Menu items -->
  <rect x="30" y="100" width="140" height="40" rx="4" fill="#FF5722" opacity="0.8"/>
  <rect x="50" y="112" width="80" height="16" rx="2" fill="#FFFFFF"/>
  
  <rect x="30" y="150" width="140" height="40" rx="4" fill="#334155"/>
  <rect x="50" y="162" width="80" height="16" rx="2" fill="#94A3B8"/>
  
  <rect x="30" y="200" width="140" height="40" rx="4" fill="#334155"/>
  <rect x="50" y="212" width="80" height="16" rx="2" fill="#94A3B8"/>
  
  <rect x="30" y="250" width="140" height="40" rx="4" fill="#334155"/>
  <rect x="50" y="262" width="80" height="16" rx="2" fill="#94A3B8"/>
  
  <!-- Main content -->
  <rect x="230" y="30" width="540" height="60" rx="8" fill="#FFFFFF" stroke="#E2E8F0" stroke-width="1"/>
  <rect x="250" y="45" width="200" height="30" rx="4" fill="#F1F5F9"/>
  <circle cx="720" cy="60" r="20" fill="#F1F5F9"/>
  
  <!-- Stats cards -->
  <rect x="230" y="110" width="170" height="120" rx="8" fill="#FFFFFF" stroke="#E2E8F0" stroke-width="1"/>
  <rect x="250" y="130" width="100" height="16" rx="2" fill="#E2E8F0"/>
  <rect x="250" y="160" width="60" height="30" rx="2" fill="#FF5722" opacity="0.1"/>
  <rect x="260" y="167" width="40" height="16" rx="2" fill="#FF5722"/>
  
  <rect x="415" y="110" width="170" height="120" rx="8" fill="#FFFFFF" stroke="#E2E8F0" stroke-width="1"/>
  <rect x="435" y="130" width="100" height="16" rx="2" fill="#E2E8F0"/>
  <rect x="435" y="160" width="60" height="30" rx="2" fill="#10B981" opacity="0.1"/>
  <rect x="445" y="167" width="40" height="16" rx="2" fill="#10B981"/>
  
  <rect x="600" y="110" width="170" height="120" rx="8" fill="#FFFFFF" stroke="#E2E8F0" stroke-width="1"/>
  <rect x="620" y="130" width="100" height="16" rx="2" fill="#E2E8F0"/>
  <rect x="620" y="160" width="60" height="30" rx="2" fill="#3B82F6" opacity="0.1"/>
  <rect x="630" y="167" width="40" height="16" rx="2" fill="#3B82F6"/>
  
  <!-- Chart area -->
  <rect x="230" y="250" width="540" height="220" rx="8" fill="#FFFFFF" stroke="#E2E8F0" stroke-width="1"/>
  <rect x="250" y="270" width="150" height="20" rx="2" fill="#E2E8F0"/>
  
  <!-- Chart bars -->
  <rect x="270" y="320" width="30" height="100" rx="4" fill="#FF5722" opacity="0.7"/>
  <rect x="320" y="350" width="30" height="70" rx="4" fill="#FF5722" opacity="0.7"/>
  <rect x="370" y="300" width="30" height="120" rx="4" fill="#FF5722" opacity="0.7"/>
  <rect x="420" y="330" width="30" height="90" rx="4" fill="#FF5722" opacity="0.7"/>
  <rect x="470" y="280" width="30" height="140" rx="4" fill="#FF5722" opacity="0.7"/>
  <rect x="520" y="320" width="30" height="100" rx="4" fill="#FF5722" opacity="0.7"/>
  <rect x="570" y="340" width="30" height="80" rx="4" fill="#FF5722" opacity="0.7"/>
  <rect x="620" y="310" width="30" height="110" rx="4" fill="#FF5722" opacity="0.7"/>
  
  <!-- X-axis -->
  <rect x="250" y="430" width="500" height="1" fill="#E2E8F0"/>
  
  <!-- X-axis labels -->
  <rect x="270" y="440" width="20" height="10" rx="2" fill="#94A3B8"/>
  <rect x="320" y="440" width="20" height="10" rx="2" fill="#94A3B8"/>
  <rect x="370" y="440" width="20" height="10" rx="2" fill="#94A3B8"/>
  <rect x="420" y="440" width="20" height="10" rx="2" fill="#94A3B8"/>
  <rect x="470" y="440" width="20" height="10" rx="2" fill="#94A3B8"/>
  <rect x="520" y="440" width="20" height="10" rx="2" fill="#94A3B8"/>
  <rect x="570" y="440" width="20" height="10" rx="2" fill="#94A3B8"/>
  <rect x="620" y="440" width="20" height="10" rx="2" fill="#94A3B8"/>
</svg>